<svg xmlns="http://www.w3.org/2000/svg" viewBox="0 0 270.797 270.797">
  <path d="M190.25 98.53L138.3 46.57c.06-1.23.2-2.46.35-3.68.08-.7.17-1.3.28-1.9l.02-.2c.1-.6.22-1.2.34-1.8v-.28l.4-1.74v-.2c.1-.6.3-1.17.4-1.74l.04-.15c.7-2.4 1.6-4.74 2.7-7l.17-.4.6-1.2.38-.7.6-1.06.5-.86.6-.94.54-.9.6-.86.65-.94.6-.8c.26-.36.5-.7.8-1l.6-.74.9-1.1.5-.53c.5-.6 1.02-1.1 1.55-1.6 2.4-2.4 5-4.5 7.75-6.38 2.06-1.34 4.2-2.53 6.38-3.54 2.2-1 4.45-1.86 6.74-2.54 9.15-2.7 18.93-2.7 28.1 0 2.3.67 4.55 1.5 6.74 2.53 2.2 1 4.33 2.2 6.38 3.54 2.74 1.8 5.34 3.9 7.74 6.32 19.23 19.25 19.23 50.47 0 69.73-.56.56-1.1 1.07-1.65 1.57-.17.2-.37.36-.56.53l-1.1.9-.7.58-1 .8-.8.6-.94.65-.9.6c-.3.2-.6.4-.9.56l-.96.6-.8.45-1.06.6-.7.36c-.4.2-.8.43-1.2.62l-.35.13c-2.3 1.1-4.6 2-7 2.7l-.14.04c-.58.2-1.16.35-1.74.5l-.2.06c-.6.13-1.17.3-1.75.4l-.23.04c-.5.15-1.1.27-1.7.37-.04 0-.1 0-.14.04-.63.1-1.25.2-1.87.24-1.26.16-2.48.3-3.7.35zm36.85 76.73c-8.72-8.73-20.3-13.53-32.65-13.53s-23.93 4.8-32.65 13.53l-71.4 71.4c-5.9 5.9-13.73 9.14-22.06 9.14s-16.15-3.25-22.05-9.14l-.6-.55c-12.2-12.1-12.2-31.9 0-44l18.9-18.9 5.4 5.4c1.4 1.46 3.3 2.2 5.3 2.2 1.6 0 3.3-.53 4.6-1.62l100-79.5-.4-.35-51.9-51.97-.48-.5-80.1 99.38c-2.4 3-2.16 7.3.55 10l6.4 6.4L35 191.58c-18 18.03-18 47.3 0 65.33l.55.55c8.7 8.7 20.3 13.5 32.6 13.5s23.95-4.8 32.7-13.52l71.4-71.4c5.9-5.9 13.7-9.12 22.03-9.12s16.18 3.26 22.07 9.15l19.85 19.86c2.95 2.95 7.7 2.95 10.6 0 2.96-2.9 2.96-7.66 0-10.6L227 175.34z"/>
</svg>
